<svg xmlns="http://www.w3.org/2000/svg" version="1.1" xmlns:xlink="http://www.w3.org/1999/xlink" width="512" height="512" x="0" y="0" viewBox="0 0 64 64" style="enable-background:new 0 0 512 512" xml:space="preserve" class=""><g><path d="M55.87 43.507A1 1 0 0 0 55 43h-6v-4a1 1 0 0 0-1-1h-1.771a18 18 0 1 0-28.458 0H16a1 1 0 0 0-1 1v4H9a1 1 0 0 0-.857 1.515L10.834 49l-2.691 4.485A1 1 0 0 0 9 55h10a1 1 0 0 0 1-1v-4h24v4a1 1 0 0 0 1 1h10a1 1 0 0 0 .857-1.515L53.166 49l2.691-4.485a1 1 0 0 0 .013-1.008ZM16 27a16 16 0 1 1 27.6 11h-2.94a14 14 0 1 0-17.314 0H20.4A15.879 15.879 0 0 1 16 27Zm18 1h-4a5.006 5.006 0 0 0-5 5v3.752a12 12 0 1 1 14 0V33a5.006 5.006 0 0 0-5-5Zm-6.791 10a4.43 4.43 0 0 1-.209-.1V33a3 3 0 0 1 3-3h4a3 3 0 0 1 3 3v4.9c-.07.032-.138.066-.209.1ZM17 40h30v8H17Zm1 13h-7.234l2.091-3.485a1 1 0 0 0 0-1.03L10.766 45H15v4a1 1 0 0 0 1 1h2Zm33.143-4.515a1 1 0 0 0 0 1.03L53.234 53H46v-3h2a1 1 0 0 0 1-1v-4h4.234Z" fill="#00adb8" opacity="1" data-original="#000000"></path><path d="M27 45h10a1 1 0 0 0 0-2H27a1 1 0 0 0 0 2ZM51 27a1 1 0 0 0 1 1h3a1 1 0 0 0 0-2h-3a1 1 0 0 0-1 1ZM9 28h3a1 1 0 0 0 0-2H9a1 1 0 0 0 0 2ZM50.794 21.16a.976.976 0 0 0 .342-.061l2.819-1.026a1 1 0 0 0-.684-1.879l-2.819 1.026a1 1 0 0 0 .342 1.94ZM12.864 32.9l-2.819 1.026a1 1 0 0 0 .342 1.94.976.976 0 0 0 .342-.061l2.819-1.026a1 1 0 1 0-.684-1.879ZM51.136 32.9a1 1 0 1 0-.684 1.879l2.819 1.026a.976.976 0 0 0 .342.061 1 1 0 0 0 .342-1.94ZM10.045 20.073l2.819 1.027a.976.976 0 0 0 .342.061 1 1 0 0 0 .342-1.94l-2.819-1.026a1 1 0 0 0-.684 1.879ZM32 18a4 4 0 1 0 4 4 4 4 0 0 0-4-4Zm0 6a2 2 0 1 1 2-2 2 2 0 0 1-2 2Z" fill="#00adb8" opacity="1" data-original="#000000"></path></g></svg>