<svg xmlns="http://www.w3.org/2000/svg" version="1.1" xmlns:xlink="http://www.w3.org/1999/xlink" width="512" height="512" x="0" y="0" viewBox="0 0 682.667 682.667" style="enable-background:new 0 0 512 512" xml:space="preserve" class=""><g><defs><clipPath id="a" clipPathUnits="userSpaceOnUse"><path d="M0 512h512V0H0Z" fill="#ff7a7c" opacity="1" data-original="#000000"></path></clipPath></defs><g clip-path="url(#a)" transform="matrix(1.33333 0 0 -1.33333 0 682.667)"><path d="m0 0-27.005 52.073c-4.787 9.23-15.996 13.051-25.425 8.666-9.046-4.208-13.431-14.586-10.142-24.005l22.146-63.43-71.699 45.765-29.513 73.455a15.287 15.287 0 0 1-17.422 9.241c-8.483-1.839-13.734-10.365-11.56-18.768l20.538-79.38a59.384 59.384 0 0 1 13.663-25.193l82.356-90.077a22.944 22.944 0 0 0 6.01-15.481v-44.942" style="stroke-width:15;stroke-linecap:round;stroke-linejoin:round;stroke-miterlimit:10;stroke-dasharray:none;stroke-opacity:1" transform="translate(178.612 192.96)" fill="none" stroke="#ff7a7c" stroke-width="15" stroke-linecap="round" stroke-linejoin="round" stroke-miterlimit="10" stroke-dasharray="none" stroke-opacity="" data-original="#000000" opacity="1"></path><path d="M0 0v65.062a86.87 86.87 0 0 1-15.227 49.131L-34.98 143" style="stroke-width:15;stroke-linecap:round;stroke-linejoin:round;stroke-miterlimit:10;stroke-dasharray:none;stroke-opacity:1" transform="translate(233.53 20.884)" fill="none" stroke="#ff7a7c" stroke-width="15" stroke-linecap="round" stroke-linejoin="round" stroke-miterlimit="10" stroke-dasharray="none" stroke-opacity="" data-original="#000000" opacity="1"></path><path d="m0 0-8.474 27.354" style="stroke-width:15;stroke-linecap:round;stroke-linejoin:round;stroke-miterlimit:10;stroke-dasharray:none;stroke-opacity:1" transform="translate(146.66 138.91)" fill="none" stroke="#ff7a7c" stroke-width="15" stroke-linecap="round" stroke-linejoin="round" stroke-miterlimit="10" stroke-dasharray="none" stroke-opacity="" data-original="#000000" opacity="1"></path><path d="M0 0v65.062a86.87 86.87 0 0 0 15.227 49.131l39.691 57.883 27.006 52.073c4.787 9.23 15.996 13.051 25.424 8.666 9.046-4.208 13.431-14.586 10.143-24.005l-22.147-63.43 71.699 45.765 29.514 73.456a15.286 15.286 0 0 0 17.421 9.24c8.483-1.839 13.735-10.364 11.561-18.768L205 175.693a59.38 59.38 0 0 0-13.663-25.193l-82.355-90.077a22.944 22.944 0 0 1-6.01-15.481V0" style="stroke-width:15;stroke-linecap:round;stroke-linejoin:round;stroke-miterlimit:10;stroke-dasharray:none;stroke-opacity:1" transform="translate(278.47 20.884)" fill="none" stroke="#ff7a7c" stroke-width="15" stroke-linecap="round" stroke-linejoin="round" stroke-miterlimit="10" stroke-dasharray="none" stroke-opacity="" data-original="#000000" opacity="1"></path><path d="m0 0 8.474 27.354" style="stroke-width:15;stroke-linecap:round;stroke-linejoin:round;stroke-miterlimit:10;stroke-dasharray:none;stroke-opacity:1" transform="translate(365.34 138.91)" fill="none" stroke="#ff7a7c" stroke-width="15" stroke-linecap="round" stroke-linejoin="round" stroke-miterlimit="10" stroke-dasharray="none" stroke-opacity="" data-original="#000000" opacity="1"></path><path d="M0 0v18.059C0 43.16 20.349 63.508 45.438 63.508h34.5c25.088 0 45.437-20.348 45.437-45.449v-42.674c0-30.303-24.557-54.86-54.86-54.86H54.86c-26.671 0-48.891 19.023-53.834 44.244" style="stroke-width:15;stroke-linecap:round;stroke-linejoin:round;stroke-miterlimit:10;stroke-dasharray:none;stroke-opacity:1" transform="translate(282.85 388.435)" fill="none" stroke="#ff7a7c" stroke-width="15" stroke-linecap="round" stroke-linejoin="round" stroke-miterlimit="10" stroke-dasharray="none" stroke-opacity="" data-original="#000000" opacity="1"></path><path d="M0 0s-7.642-63.508-62.688-63.508v18.059C-62.688-20.348-42.339 0-17.25 0Z" style="stroke-width:15;stroke-linecap:round;stroke-linejoin:round;stroke-miterlimit:10;stroke-dasharray:none;stroke-opacity:1" transform="translate(345.537 451.942)" fill="none" stroke="#ff7a7c" stroke-width="15" stroke-linecap="round" stroke-linejoin="round" stroke-miterlimit="10" stroke-dasharray="none" stroke-opacity="" data-original="#000000" opacity="1"></path><path d="M0 0v-18.059c-55.045 0-62.688 63.508-62.688 63.508h17.25C-20.349 45.449 0 25.101 0 0Z" style="stroke-width:15;stroke-linecap:round;stroke-linejoin:round;stroke-miterlimit:10;stroke-dasharray:none;stroke-opacity:1" transform="translate(408.225 406.494)" fill="none" stroke="#ff7a7c" stroke-width="15" stroke-linecap="round" stroke-linejoin="round" stroke-miterlimit="10" stroke-dasharray="none" stroke-opacity="" data-original="#000000" opacity="1"></path><path d="M0 0c0-10.817-8.769-19.587-19.586-19.587-10.818 0-19.587 8.77-19.587 19.587s8.769 19.586 19.587 19.586C-8.769 19.586 0 10.817 0 0Z" style="stroke-width:15;stroke-linecap:round;stroke-linejoin:round;stroke-miterlimit:10;stroke-dasharray:none;stroke-opacity:1" transform="translate(365.123 471.53)" fill="none" stroke="#ff7a7c" stroke-width="15" stroke-linecap="round" stroke-linejoin="round" stroke-miterlimit="10" stroke-dasharray="none" stroke-opacity="" data-original="#000000" opacity="1"></path><path d="M0 0c9.479 5.423 20.47 8.527 32.175 8.527C43.88 8.527 54.86 5.423 64.34 0" style="stroke-width:15;stroke-linecap:round;stroke-linejoin:round;stroke-miterlimit:10;stroke-dasharray:none;stroke-opacity:1" transform="translate(136.483 448.409)" fill="none" stroke="#ff7a7c" stroke-width="15" stroke-linecap="round" stroke-linejoin="round" stroke-miterlimit="10" stroke-dasharray="none" stroke-opacity="" data-original="#000000" opacity="1"></path><path d="M0 0v-26.317c0-31.358 25.417-56.785 56.774-56.785h16.197c31.357 0 56.774 25.427 56.774 56.785V0" style="stroke-width:15;stroke-linecap:round;stroke-linejoin:round;stroke-miterlimit:10;stroke-dasharray:none;stroke-opacity:1" transform="translate(103.78 392.058)" fill="none" stroke="#ff7a7c" stroke-width="15" stroke-linecap="round" stroke-linejoin="round" stroke-miterlimit="10" stroke-dasharray="none" stroke-opacity="" data-original="#000000" opacity="1"></path><path d="M0 0v28.507c0 18.066 14.646 32.711 32.711 32.711C32.711 61.218 49.447 0 0 0Z" style="stroke-width:15;stroke-linecap:round;stroke-linejoin:round;stroke-miterlimit:10;stroke-dasharray:none;stroke-opacity:1" transform="translate(103.775 387.196)" fill="none" stroke="#ff7a7c" stroke-width="15" stroke-linecap="round" stroke-linejoin="round" stroke-miterlimit="10" stroke-dasharray="none" stroke-opacity="" data-original="#000000" opacity="1"></path><path d="M0 0v28.507c0 18.066-14.645 32.711-32.711 32.711C-32.711 61.218-49.447 0 0 0Z" style="stroke-width:15;stroke-linecap:round;stroke-linejoin:round;stroke-miterlimit:10;stroke-dasharray:none;stroke-opacity:1" transform="translate(233.53 387.196)" fill="none" stroke="#ff7a7c" stroke-width="15" stroke-linecap="round" stroke-linejoin="round" stroke-miterlimit="10" stroke-dasharray="none" stroke-opacity="" data-original="#000000" opacity="1"></path><path d="M0 0a16.28 16.28 0 0 0-9.594-3.115c-3.58 0-6.903 1.159-9.593 3.115" style="stroke-width:15;stroke-linecap:round;stroke-linejoin:round;stroke-miterlimit:10;stroke-dasharray:none;stroke-opacity:1" transform="translate(178.247 356.198)" fill="none" stroke="#ff7a7c" stroke-width="15" stroke-linecap="round" stroke-linejoin="round" stroke-miterlimit="10" stroke-dasharray="none" stroke-opacity="" data-original="#000000" opacity="1"></path><path d="M0 0a15.73 15.73 0 0 0-9.27-3.01c-3.46 0-6.67 1.12-9.27 3.01" style="stroke-width:15;stroke-linecap:round;stroke-linejoin:round;stroke-miterlimit:10;stroke-dasharray:none;stroke-opacity:1" transform="translate(354.807 354.604)" fill="none" stroke="#ff7a7c" stroke-width="15" stroke-linecap="round" stroke-linejoin="round" stroke-miterlimit="10" stroke-dasharray="none" stroke-opacity="" data-original="#000000" opacity="1"></path><path d="M0 0h102.972l24.847 14.757" style="stroke-width:15;stroke-linecap:round;stroke-linejoin:round;stroke-miterlimit:10;stroke-dasharray:none;stroke-opacity:1" transform="translate(278.47 44.33)" fill="none" stroke="#ff7a7c" stroke-width="15" stroke-linecap="round" stroke-linejoin="round" stroke-miterlimit="10" stroke-dasharray="none" stroke-opacity="" data-original="#000000" opacity="1"></path><path d="m0 0 24.847-15.909" style="stroke-width:15;stroke-linecap:round;stroke-linejoin:round;stroke-miterlimit:10;stroke-dasharray:none;stroke-opacity:1" transform="translate(381.441 44.33)" fill="none" stroke="#ff7a7c" stroke-width="15" stroke-linecap="round" stroke-linejoin="round" stroke-miterlimit="10" stroke-dasharray="none" stroke-opacity="" data-original="#000000" opacity="1"></path><path d="M0 0a7.479 7.479 0 1 0-14.958 0A7.479 7.479 0 0 0 0 0" style="fill-opacity:1;fill-rule:nonzero;stroke:none" transform="translate(58.631 474.156)" fill="#ff7a7c" data-original="#000000" opacity="1"></path><path d="M0 0v-28.299" style="stroke-width:15;stroke-linecap:round;stroke-linejoin:round;stroke-miterlimit:10;stroke-dasharray:none;stroke-opacity:1" transform="translate(256 258.14)" fill="none" stroke="#ff7a7c" stroke-width="15" stroke-linecap="round" stroke-linejoin="round" stroke-miterlimit="10" stroke-dasharray="none" stroke-opacity="" data-original="#000000" opacity="1"></path><path d="M0 0h-28.3" style="stroke-width:15;stroke-linecap:round;stroke-linejoin:round;stroke-miterlimit:10;stroke-dasharray:none;stroke-opacity:1" transform="translate(270.15 243.99)" fill="none" stroke="#ff7a7c" stroke-width="15" stroke-linecap="round" stroke-linejoin="round" stroke-miterlimit="10" stroke-dasharray="none" stroke-opacity="" data-original="#000000" opacity="1"></path></g></g></svg>