<svg xmlns="http://www.w3.org/2000/svg" version="1.1" xmlns:xlink="http://www.w3.org/1999/xlink" width="512" height="512" x="0" y="0" viewBox="0 0 480 480" style="enable-background:new 0 0 512 512" xml:space="preserve" class=""><g><path d="M448 24H80c-17.673 0-32 14.327-32 32v256H8a8 8 0 0 0-8 8c0 17.673 14.327 32 32 32h232v96a8 8 0 0 0 13.656 5.656L320 411.312l42.344 42.344A8 8 0 0 0 368 456a8 8 0 0 0 8-8v-96h24c17.673 0 32-14.327 32-32V64h40a8 8 0 0 0 8-8c0-17.673-14.327-32-32-32zm-32 32v256h-32v16h29.848A16 16 0 0 1 400 336h-24v-8h-16v100.688l-34.344-34.344a8 8 0 0 0-11.312 0L280 428.688V328h-16v8H32a16 16 0 0 1-13.848-8H256v-16H64V56c0-8.837 7.163-16 16-16h340.448A31.675 31.675 0 0 0 416 56zm18.152-8c4.426-7.648 14.214-10.26 21.863-5.833A16.003 16.003 0 0 1 461.848 48h-27.696z" fill="#ff7a7c" opacity="1" data-original="#000000"></path><path d="M395.416 274.36 385.168 256l10.288-18.344a8 8 0 0 0-3.64-11.2l-19.096-8.744-2.464-20.88a8 8 0 0 0-9.496-6.904l-20.624 4.088-14.264-15.448a8.24 8.24 0 0 0-11.653-.091l-.091.091-14.264 15.448-20.624-4.088a8 8 0 0 0-9.496 6.904l-2.464 20.88-19.096 8.76a8 8 0 0 0-3.64 11.2L254.832 256l-10.288 18.344a8 8 0 0 0 3.64 11.2l19.096 8.76 2.464 20.896a8 8 0 0 0 9.496 6.904l20.624-4.088 14.264 15.448a8 8 0 0 0 11.744 0l14.264-15.448 20.624 4.088a7.887 7.887 0 0 0 6.256-1.376 8 8 0 0 0 3.2-5.528l2.464-20.88 19.096-8.76a8 8 0 0 0 3.64-11.2zm-26.392-14.456 8.232 14.688-15.296 7.016a8 8 0 0 0-4.608 6.336l-1.968 16.744-16.536-3.272a7.886 7.886 0 0 0-7.424 2.4L320 316.2l-11.424-12.368a7.998 7.998 0 0 0-5.872-2.568 7.225 7.225 0 0 0-1.552.16l-16.536 3.272-1.968-16.744a8 8 0 0 0-4.608-6.336l-15.296-7.016 8.232-14.688c1.376-2.44 1.409-5.403 0-7.824v.032l-8.232-14.688 15.296-7.016a8 8 0 0 0 4.608-6.336l1.968-16.744 16.536 3.272a7.92 7.92 0 0 0 7.424-2.4L320 195.8l11.424 12.368a7.88 7.88 0 0 0 7.424 2.4l16.536-3.272 1.968 16.744a8 8 0 0 0 4.608 6.336l15.296 7.016-8.232 14.688a8.002 8.002 0 0 0 0 7.824z" fill="#ff7a7c" opacity="1" data-original="#000000"></path><path d="M320 216c-22.091 0-40 17.909-40 40 .026 22.08 17.92 39.973 40 40 22.091 0 40-17.909 40-40s-17.909-40-40-40zm0 64c-13.255 0-24-10.745-24-24s10.745-24 24-24 24 10.745 24 24-10.745 24-24 24zM176 72h128v16H176zM96 120h288v16H96zM96 152h288v16H96zM104 256h104v16H104z" fill="#ff7a7c" opacity="1" data-original="#000000"></path></g></svg>