<svg xmlns="http://www.w3.org/2000/svg" version="1.1" xmlns:xlink="http://www.w3.org/1999/xlink" width="512" height="512" x="0" y="0" viewBox="0 0 128 128" style="enable-background:new 0 0 512 512" xml:space="preserve" class=""><g><path d="M62.763 50.5a1.748 1.748 0 0 0 2.474 0l21.53-21.53A16.975 16.975 0 0 0 64 3.845a16.975 16.975 0 0 0-22.767 25.128ZM43.708 7.443a13.475 13.475 0 0 1 19.055 0 1.748 1.748 0 0 0 2.474 0A13.474 13.474 0 0 1 84.292 26.5L64 46.791 43.708 26.5a13.49 13.49 0 0 1 0-19.057Z" fill="#00adb8" opacity="1" data-original="#000000"></path><path d="M77.894 25.807a1.743 1.743 0 0 0 1.237-.513l1.978-1.978a8.972 8.972 0 0 0 0-12.691 1.75 1.75 0 0 0-2.474 2.475 5.474 5.474 0 0 1 0 7.741l-1.979 1.978a1.751 1.751 0 0 0 1.238 2.988ZM36.75 93.352a5.142 5.142 0 0 0 5.136-5.136 1.75 1.75 0 0 0-3.5 0 1.636 1.636 0 0 1-3.272 0 1.75 1.75 0 0 0-3.5 0 5.142 5.142 0 0 0 5.136 5.136ZM43.019 68.406H30.48a1.75 1.75 0 0 0 0 3.5h12.539a1.75 1.75 0 1 0 0-3.5ZM33.346 66.986h6.808a1.75 1.75 0 0 0 0-3.5h-6.808a1.75 1.75 0 1 0 0 3.5ZM91.25 93.352a5.142 5.142 0 0 0 5.136-5.136 1.75 1.75 0 1 0-3.5 0 1.636 1.636 0 0 1-3.272 0 1.75 1.75 0 1 0-3.5 0 5.142 5.142 0 0 0 5.136 5.136ZM84.98 71.906h12.539a1.75 1.75 0 0 0 0-3.5H84.98a1.75 1.75 0 0 0 0 3.5ZM87.846 66.986h6.808a1.75 1.75 0 0 0 0-3.5h-6.808a1.75 1.75 0 1 0 0 3.5Z" fill="#00adb8" opacity="1" data-original="#000000"></path><path d="M108.978 100.377h-8.692v-3.549a19.546 19.546 0 0 0 9.648-11.428h1.752a6.22 6.22 0 0 0 6.222-6.414 6.15 6.15 0 0 0-2.333-4.591 4.814 4.814 0 0 0 .811-3.6l-2.014-11.577a5.077 5.077 0 0 0-7.867-3.317 19.453 19.453 0 0 0-30.6-.056l-.091-.057a5.072 5.072 0 0 0-7.687 3.43L66.113 70.8a4.817 4.817 0 0 0 .812 3.6 6.146 6.146 0 0 0-2.333 4.59 6.221 6.221 0 0 0 6.221 6.41h1.753a19.546 19.546 0 0 0 9.648 11.427v3.549h-8.693a18.878 18.878 0 0 0-9.511 2.574 18.906 18.906 0 0 0-9.146-2.56 10.77 10.77 0 0 0 7.924-10.368A10.64 10.64 0 0 0 61 84.093a6.171 6.171 0 0 0 2.413-5.106A6.367 6.367 0 0 0 57 72.952h-.625v-4.521A19.948 19.948 0 0 0 37.3 48.443a19.614 19.614 0 0 0-20.174 19.616v4.893H16.5a6.367 6.367 0 0 0-6.409 6.034 6.253 6.253 0 0 0 6.222 6.414h1.753a19.546 19.546 0 0 0 9.648 11.427v3.549h-8.693A19.043 19.043 0 0 0 0 119.4v6.849A1.75 1.75 0 0 0 1.75 128h124.5a1.75 1.75 0 0 0 1.75-1.75v-6.85a19.043 19.043 0 0 0-19.022-19.023Zm-2.115-40.572 1.679-1.051a1.573 1.573 0 0 1 2.383 1.062l2.012 11.578c.048 1.044-.405 1.5-1.438 1.558h-3.627a1.331 1.331 0 0 1-1.329-1.26l-.55-10.386a1.606 1.606 0 0 1 .87-1.501ZM79.451 71.878 80 61.491a5.21 5.21 0 0 0-1.251-3.614 15.974 15.974 0 0 1 24.929.081 5.223 5.223 0 0 0-1.178 3.532l.551 10.388a4.819 4.819 0 0 0 2.144 3.756l-1.3 1.052a6.009 6.009 0 0 0-10.956 1.259h-3.376a6.009 6.009 0 0 0-10.956-1.259l-1.3-1.052a4.819 4.819 0 0 0 2.144-3.756Zm21.757 7.817a2.516 2.516 0 1 1-2.516-2.516 2.518 2.518 0 0 1 2.516 2.516Zm-14.884 0a2.516 2.516 0 1 1-2.516-2.516 2.518 2.518 0 0 1 2.516 2.516ZM71.575 59.816a1.58 1.58 0 0 1 2.383-1.063l1.814 1.137a1.57 1.57 0 0 1 .736 1.415l-.551 10.387a1.331 1.331 0 0 1-1.329 1.26h-3.755c-1.005-.151-1.334-.542-1.312-1.558Zm4.016 23.42a1.752 1.752 0 0 0-1.7-1.335c-2.385-.155-3.8.447-5.034-.827a2.708 2.708 0 0 1-.767-1.983A2.845 2.845 0 0 1 71 76.452h1.755l5.11 4.138a6.011 6.011 0 0 0 11.7.855h3.374a6.011 6.011 0 0 0 11.7-.855l5.11-4.138h1.751a2.846 2.846 0 0 1 2.911 2.64 2.723 2.723 0 0 1-2.724 2.809h-3.077a1.752 1.752 0 0 0-1.7 1.335A16.063 16.063 0 0 1 97.881 94.1a16.385 16.385 0 0 1-13.262 0 16.06 16.06 0 0 1-9.028-10.864Zm21.2 14.989v6.953a5.536 5.536 0 1 1-11.072 0v-6.953c.381.1.757.2 1.142.292a19.934 19.934 0 0 0 9.925-.292ZM80.4 103.877h1.815v1.3a9.036 9.036 0 1 0 18.072 0v-1.3h1.813v1.3a10.851 10.851 0 0 1-21.7 0Zm-28.372-6.594a7.167 7.167 0 0 1-4.444-1.525 19.529 19.529 0 0 0 7.85-10.358c.335 0 1.863.014 2.173-.015a7.18 7.18 0 0 1 1.681 4.637 7.268 7.268 0 0 1-7.26 7.261Zm-6.242 7.895v-1.3h4.657l-1.509 6.878a4.4 4.4 0 0 1-6.428 2.9l-1.21-.671a9.129 9.129 0 0 0 4.49-7.807Zm-9.036 5.537a5.543 5.543 0 0 1-5.536-5.537v-6.953a19.93 19.93 0 0 0 11.072 0v6.953a5.543 5.543 0 0 1-5.536 5.537Zm9.036-10.338v-1.624a10.821 10.821 0 0 0 3.391 1.624Zm-25.16-32.318A16.11 16.11 0 0 1 37.2 51.942a16.424 16.424 0 0 1 15.67 16.489v4.521h-1.008a.242.242 0 0 1-.242-.243v-6.622a8.4 8.4 0 0 0-8.393-8.393H30.273a8.4 8.4 0 0 0-8.393 8.393v6.622a.243.243 0 0 1-.242.243h-1.012Zm23.566 5.62a6.027 6.027 0 0 0-5.755 4.266h-3.374a6.009 6.009 0 0 0-10.956-1.259l-.8-.646a3.736 3.736 0 0 0 2.071-3.331v-6.622a4.9 4.9 0 0 1 4.893-4.893h12.956a4.9 4.9 0 0 1 4.893 4.893v6.622a3.734 3.734 0 0 0 2.071 3.331l-.8.646a6.012 6.012 0 0 0-5.199-3.007Zm2.516 6.016a2.516 2.516 0 1 1-2.516-2.516 2.518 2.518 0 0 1 2.516 2.516Zm-14.884 0a2.516 2.516 0 1 1-2.516-2.516 2.518 2.518 0 0 1 2.516 2.516Zm-10.733 3.541a1.752 1.752 0 0 0-1.7-1.335h-3.078a2.723 2.723 0 0 1-2.723-2.81 2.845 2.845 0 0 1 2.91-2.639h1.755l5.11 4.138a6.011 6.011 0 0 0 11.7.855h3.374a6.011 6.011 0 0 0 11.7-.855l5.11-4.138H57a2.846 2.846 0 0 1 2.911 2.64 2.745 2.745 0 0 1-2.725 2.808h-3.077a1.752 1.752 0 0 0-1.7 1.335 16.12 16.12 0 0 1-31.318 0Zm6.623 20.641v1.3a9.127 9.127 0 0 0 4.49 7.808l-1.21.671a4.4 4.4 0 0 1-6.428-2.9l-1.509-6.878ZM54.5 119.4v5.1H14.3v-6.97a1.75 1.75 0 0 0-3.5 0v6.97H3.5v-5.1a15.539 15.539 0 0 1 15.521-15.521h.453l1.674 7.628a7.947 7.947 0 0 0 11.543 5.213l4.059-2.252 4.059 2.252a7.944 7.944 0 0 0 11.543-5.212l1.674-7.629h.452a15.437 15.437 0 0 1 6.351 1.36A19.252 19.252 0 0 0 54.5 119.4Zm70 5.1h-7.3v-6.97a1.75 1.75 0 0 0-3.5 0v6.97H68.8v-6.97a1.75 1.75 0 0 0-3.5 0v6.97H58v-5.1a15.606 15.606 0 0 1 15.521-15.521H76.9v1.3a14.351 14.351 0 0 0 28.7 0v-1.3h3.377A15.539 15.539 0 0 1 124.5 119.4Z" fill="#00adb8" opacity="1" data-original="#000000"></path></g></svg>