<svg xmlns="http://www.w3.org/2000/svg" version="1.1" xmlns:xlink="http://www.w3.org/1999/xlink" width="512" height="512" x="0" y="0" viewBox="0 0 266.62 265.73" style="enable-background:new 0 0 512 512" xml:space="preserve" class=""><g><g data-name="Layer 2"><g data-name="Layer 1"><g data-name="health care"><path d="M230.26 54a53.9 53.9 0 0 0-96.94-32.51A53.91 53.91 0 0 0 36.36 54c0 60.43 91 116.67 94.86 119.07a4.54 4.54 0 0 0 2.1.6 4.44 4.44 0 0 0 2.1-.6c3.89-2.43 94.84-58.67 94.84-119.07zm-96.94 110.76C119.64 156 44.45 105.05 44.45 54a45.84 45.84 0 0 1 85.39-23.3 4.14 4.14 0 0 0 6.95 0A45.84 45.84 0 0 1 222.17 54c0 51.05-75.17 102-88.85 110.76zM89.85 188.51c-5.95-2.4-11.1-4.56-28-27.46a15.92 15.92 0 0 0-9.53-6.36 173.38 173.38 0 0 1-8.57-24.58c-2-7-3.6-12.48-6.3-16.18a13.1 13.1 0 0 0-10.07-5.53 14.11 14.11 0 0 0-7.32 2c-1.37-2.27-3.12-4-5.63-4.43-4.74-1.08-7.8.47-9.59 1.91C-.27 112.24 0 120.75 0 121.48-1.17 186.7 39.9 234.2 64.48 256.86a34.77 34.77 0 0 0 44.07 1.91l3.78-2.87a31.42 31.42 0 0 0 4.67-45.57c-14.92-16.79-21.41-19.55-27.15-21.82zm-62.72-72a4.7 4.7 0 0 1 3.78 2.16c1.85 2.52 3.29 7.45 5 13.68a200.4 200.4 0 0 0 8 23.26 20.9 20.9 0 0 0-6.17 3.84 11.24 11.24 0 0 0-1.21 1.19 233.07 233.07 0 0 1-11.69-36c-.6-2.41-1.2-4.57-1.8-6.72a6.78 6.78 0 0 1 4.09-1.37zm89.34 116.68a23 23 0 0 1-9.06 16.2l-3.77 2.87a26.45 26.45 0 0 1-33.7-1.44c-23.56-21.71-63-67.15-61.82-129.51-.11-2.16.43-6 1.93-7.19a1.84 1.84 0 0 1 1.37-.48 2.4 2.4 0 0 1 1.2.25c1.32.71 3 7.42 4.44 12.83a232.28 232.28 0 0 0 17.51 49c3 10.07 12.77 23.26 29.74 40.41a4 4 0 1 0 5.74-5.63C50.09 190.3 43.86 179 42.12 173v-.13c-1.5-5.26.35-6.82 1-7.3 2.64-2.29 5.09-3.37 7.25-3.12a7.36 7.36 0 0 1 4.91 3.23c18.35 24.83 24.48 27.35 31.55 30.22 5.16 2.16 10.49 4.32 24 19.79a22.73 22.73 0 0 1 5.64 17.54zM261.8 107.92c-1.74-1.44-4.86-3-9.54-1.91-2.58.47-4.31 2.16-5.69 4.43a14.05 14.05 0 0 0-7.31-2 13.18 13.18 0 0 0-10.08 5.53c-2.69 3.7-4.25 9.23-6.29 16.18a176.16 176.16 0 0 1-8.58 24.58 16.09 16.09 0 0 0-9.47 6.24c-17 23-22.13 25.18-28.06 27.58-5.76 2.27-12.23 5-27 21.82a31.11 31.11 0 0 0-7.62 23.75 31.57 31.57 0 0 0 12.14 21.78l3.77 2.87a34.77 34.77 0 0 0 44.07-1.91c24.58-22.66 65.72-70.16 64.45-135.15.06-.96.31-9.47-4.79-13.79zm-31.12 24.47c1.8-6.23 3.18-11.16 5-13.68a4.69 4.69 0 0 1 3.77-2.16h.13a6.56 6.56 0 0 1 3.95 1.45c-.6 2.15-1.19 4.31-1.79 6.72a228.73 228.73 0 0 1-11.69 36 13.44 13.44 0 0 0-1.21-1.19 20.78 20.78 0 0 0-6.17-3.84 200.12 200.12 0 0 0 8.01-23.3zm27.88-10.79c1.14 62.11-38.31 107.55-61.87 129.26A26.45 26.45 0 0 1 163 252.3l-3.78-2.87a23.26 23.26 0 0 1-9.05-16.2 22.65 22.65 0 0 1 5.64-17.5c13.54-15.47 18.88-17.63 24-19.79 7.07-2.87 13.19-5.39 31.6-30.45a7.94 7.94 0 0 1 4.86-3h.83c2 .11 4.14 1.08 6.47 3.12.54.48 2.41 2 1 7.3 0 0-.05 0-.05.13-1.74 6-7.92 17.26-27.94 37.54a3.92 3.92 0 0 0 .06 5.63 3.76 3.76 0 0 0 2.82 1.19 3.87 3.87 0 0 0 2.87-1.19c17-17.15 26.69-30.34 29.74-40.41a233.12 233.12 0 0 0 17.56-49c1.39-5.41 3.06-12.12 4.39-12.83 1.79-.48 2.39 0 2.58.23 1.48 1.16 2.02 4.99 1.96 7.4z" fill="#ff7a7c" opacity="1" data-original="#000000" class=""></path><path d="M162.58 72h-14.46V57.56a10.18 10.18 0 0 0-10.19-10.19h-9.23a10.18 10.18 0 0 0-10.19 10.19V72h-14.46a10.2 10.2 0 0 0-10.19 10.3v9.23a10.09 10.09 0 0 0 10.19 10.08h14.46v14.5a10.18 10.18 0 0 0 10.19 10.2h9.23a10.18 10.18 0 0 0 10.19-10.2v-14.5h14.46a10.14 10.14 0 0 0 10.25-10.08v-9.27A10.26 10.26 0 0 0 162.58 72zm2.15 19.53a2.13 2.13 0 0 1-2.15 2h-18.47a4 4 0 0 0-4 4.08v18.46a2.16 2.16 0 0 1-2.16 2.17h-9.25a2.1 2.1 0 0 1-2.1-2.17V97.61a4.06 4.06 0 0 0-4.08-4.08h-18.47a2.07 2.07 0 0 1-2.1-2v-9.27a2.1 2.1 0 0 1 2.1-2.15h18.47A4.14 4.14 0 0 0 126.6 76V57.56a2.1 2.1 0 0 1 2.1-2.16h9.23a2.16 2.16 0 0 1 2.16 2.16V76a4.12 4.12 0 0 0 4 4.08h18.47a2.15 2.15 0 0 1 2.15 2.15z" fill="#ff7a7c" opacity="1" data-original="#000000" class=""></path></g></g></g></g></svg>