<svg xmlns="http://www.w3.org/2000/svg" version="1.1" xmlns:xlink="http://www.w3.org/1999/xlink" width="512" height="512" x="0" y="0" viewBox="0 0 682.667 682.667" style="enable-background:new 0 0 512 512" xml:space="preserve" class=""><g><defs><clipPath id="a" clipPathUnits="userSpaceOnUse"><path d="M0 512h512V0H0Z" fill="#ff7a7c" opacity="1" data-original="#000000"></path></clipPath></defs><path d="M0 0h30.001v-22.5H52.5v-30H30.001V-75H0v22.5h-22.5v30H0Z" style="stroke-width:15;stroke-linecap:butt;stroke-linejoin:miter;stroke-miterlimit:22.926;stroke-dasharray:none;stroke-opacity:1" transform="matrix(1.33333 0 0 -1.33333 321.333 60)" fill="none" stroke="#ff7a7c" stroke-width="15" stroke-linecap="butt" stroke-linejoin="miter" stroke-miterlimit="22.926" stroke-dasharray="none" stroke-opacity="" data-original="#000000" class="" opacity="1"></path><g clip-path="url(#a)" transform="matrix(1.33333 0 0 -1.33333 0 682.667)"><path d="M0 0c41.421 0 75-33.579 75-75s-33.579-75-75-75-75 33.579-75 75S-41.421 0 0 0z" style="stroke-width:15;stroke-linecap:butt;stroke-linejoin:miter;stroke-miterlimit:22.926;stroke-dasharray:none;stroke-opacity:1" transform="translate(256 504.5)" fill="none" stroke="#ff7a7c" stroke-width="15" stroke-linecap="butt" stroke-linejoin="miter" stroke-miterlimit="22.926" stroke-dasharray="none" stroke-opacity="" data-original="#000000" class="" opacity="1"></path><path d="M0 0v90.229c0 14.976 12.745 23.426 27.229 27.229l48.911 10.52v26.003" style="stroke-width:15;stroke-linecap:butt;stroke-linejoin:miter;stroke-miterlimit:22.926;stroke-dasharray:none;stroke-opacity:1" transform="translate(65.329 7.5)" fill="none" stroke="#ff7a7c" stroke-width="15" stroke-linecap="butt" stroke-linejoin="miter" stroke-miterlimit="22.926" stroke-dasharray="none" stroke-opacity="" data-original="#000000" class="" opacity="1"></path><path d="m0 0 41.411-12.62C55.895-16.423 68.64-24.873 68.64-39.849v-65.63" style="stroke-width:15;stroke-linecap:butt;stroke-linejoin:miter;stroke-miterlimit:22.926;stroke-dasharray:none;stroke-opacity:1" transform="translate(378.031 112.979)" fill="none" stroke="#ff7a7c" stroke-width="15" stroke-linecap="butt" stroke-linejoin="miter" stroke-miterlimit="22.926" stroke-dasharray="none" stroke-opacity="" data-original="#000000" class="" opacity="1"></path><path d="M0 0v-131.482" style="stroke-width:15;stroke-linecap:butt;stroke-linejoin:miter;stroke-miterlimit:22.926;stroke-dasharray:none;stroke-opacity:1" transform="translate(378.031 138.982)" fill="none" stroke="#ff7a7c" stroke-width="15" stroke-linecap="butt" stroke-linejoin="miter" stroke-miterlimit="22.926" stroke-dasharray="none" stroke-opacity="" data-original="#000000" class="" opacity="1"></path><path d="M0 0v131.482" style="stroke-width:15;stroke-linecap:butt;stroke-linejoin:miter;stroke-miterlimit:22.926;stroke-dasharray:none;stroke-opacity:1" transform="translate(321.95 7.5)" fill="none" stroke="#ff7a7c" stroke-width="15" stroke-linecap="butt" stroke-linejoin="miter" stroke-miterlimit="22.926" stroke-dasharray="none" stroke-opacity="" data-original="#000000" class="" opacity="1"></path><path d="m0 0 48.26 15.249" style="stroke-width:15;stroke-linecap:butt;stroke-linejoin:miter;stroke-miterlimit:22.926;stroke-dasharray:none;stroke-opacity:1" transform="translate(273.69 97.73)" fill="none" stroke="#ff7a7c" stroke-width="15" stroke-linecap="butt" stroke-linejoin="miter" stroke-miterlimit="22.926" stroke-dasharray="none" stroke-opacity="" data-original="#000000" class="" opacity="1"></path><path d="M0 0v-26.004l48.911-10.519C63.395-40.327 76.14-48.777 76.14-63.752v-90.23" style="stroke-width:15;stroke-linecap:butt;stroke-linejoin:miter;stroke-miterlimit:22.926;stroke-dasharray:none;stroke-opacity:1" transform="translate(197.55 161.482)" fill="none" stroke="#ff7a7c" stroke-width="15" stroke-linecap="butt" stroke-linejoin="miter" stroke-miterlimit="22.926" stroke-dasharray="none" stroke-opacity="" data-original="#000000" class="" opacity="1"></path><path d="M0 0v-72.152M122.601 0v-72.152" style="stroke-width:15;stroke-linecap:butt;stroke-linejoin:miter;stroke-miterlimit:22.926;stroke-dasharray:none;stroke-opacity:1" transform="translate(108.209 79.652)" fill="none" stroke="#ff7a7c" stroke-width="15" stroke-linecap="butt" stroke-linejoin="miter" stroke-miterlimit="22.926" stroke-dasharray="none" stroke-opacity="" data-original="#000000" class="" opacity="1"></path><path d="M0 0c0-15.486-12.555-28.041-28.041-28.041-15.487 0-28.041 12.555-28.041 28.041" style="stroke-width:15;stroke-linecap:butt;stroke-linejoin:miter;stroke-miterlimit:22.926;stroke-dasharray:none;stroke-opacity:1" transform="translate(197.55 135.478)" fill="none" stroke="#ff7a7c" stroke-width="15" stroke-linecap="butt" stroke-linejoin="miter" stroke-miterlimit="22.926" stroke-dasharray="none" stroke-opacity="" data-original="#000000" class="" opacity="1"></path><path d="m0 0 30.65 15L61.301 0l30.65 15 30.65-15" style="stroke-width:15;stroke-linecap:butt;stroke-linejoin:miter;stroke-miterlimit:22.926;stroke-dasharray:none;stroke-opacity:1" transform="translate(108.209 43.576)" fill="none" stroke="#ff7a7c" stroke-width="15" stroke-linecap="butt" stroke-linejoin="miter" stroke-miterlimit="22.926" stroke-dasharray="none" stroke-opacity="" data-original="#000000" class="" opacity="1"></path><path d="M0 0c50.183 5.4 58.041 38.194 58.041 62.943 0 47.403-38.679 86.081-86.083 86.081-47.403 0-86.083-38.678-86.083-86.081 0-24.749 7.858-57.543 58.042-62.943" style="stroke-width:15;stroke-linecap:butt;stroke-linejoin:miter;stroke-miterlimit:22.926;stroke-dasharray:none;stroke-opacity:1" transform="translate(378.033 138.982)" fill="none" stroke="#ff7a7c" stroke-width="15" stroke-linecap="butt" stroke-linejoin="miter" stroke-miterlimit="22.926" stroke-dasharray="none" stroke-opacity="" data-original="#000000" class="" opacity="1"></path><path d="M0 0c0-30.838-25.237-56.081-56.083-56.081-30.844 0-56.081 25.237-56.081 56.081v14.427c20.999 46.574 78.564 0 112.164 0z" style="stroke-width:15;stroke-linecap:butt;stroke-linejoin:miter;stroke-miterlimit:22.926;stroke-dasharray:none;stroke-opacity:1" transform="translate(406.073 187.499)" fill="none" stroke="#ff7a7c" stroke-width="15" stroke-linecap="butt" stroke-linejoin="miter" stroke-miterlimit="22.926" stroke-dasharray="none" stroke-opacity="" data-original="#000000" class="" opacity="1"></path><path d="M0 0c0-15.486-12.554-28.041-28.041-28.041-15.486 0-28.041 12.555-28.041 28.041" style="stroke-width:15;stroke-linecap:butt;stroke-linejoin:miter;stroke-miterlimit:22.926;stroke-dasharray:none;stroke-opacity:1" transform="translate(378.031 90.479)" fill="none" stroke="#ff7a7c" stroke-width="15" stroke-linecap="butt" stroke-linejoin="miter" stroke-miterlimit="22.926" stroke-dasharray="none" stroke-opacity="" data-original="#000000" class="" opacity="1"></path><path d="M0 0v-25.963c0-30.845 25.237-56.081 56.082-56.081 30.845 0 56.082 25.236 56.082 56.081V0m-11.351 47.674C89.832 57.033 72.957 61.691 56.082 61.68c-16.875.011-33.75-4.647-44.731-14.006" style="stroke-width:15;stroke-linecap:butt;stroke-linejoin:miter;stroke-miterlimit:22.926;stroke-dasharray:none;stroke-opacity:1" transform="translate(113.427 235.962)" fill="none" stroke="#ff7a7c" stroke-width="15" stroke-linecap="butt" stroke-linejoin="miter" stroke-miterlimit="22.926" stroke-dasharray="none" stroke-opacity="" data-original="#000000" class="" opacity="1"></path><path d="m0 0 11.144-25.174v-22.5h-22.5c-8.249 0-15 6.75-15 15S-16.575 0 0 0Zm89.451 0L78.307-25.174v-22.5h22.501c8.249 0 14.999 6.75 14.999 15S106.026 0 89.451 0z" style="stroke-width:15;stroke-linecap:butt;stroke-linejoin:miter;stroke-miterlimit:22.926;stroke-dasharray:none;stroke-opacity:1" transform="translate(124.784 283.636)" fill="none" stroke="#ff7a7c" stroke-width="15" stroke-linecap="butt" stroke-linejoin="miter" stroke-miterlimit="22.926" stroke-dasharray="none" stroke-opacity="" data-original="#000000" class="" opacity="1"></path><path d="M0 0c-.948 22.816 17.265 41.844 40.121 41.844S81.189 22.816 80.241 0" style="stroke-width:15;stroke-linecap:butt;stroke-linejoin:miter;stroke-miterlimit:22.926;stroke-dasharray:none;stroke-opacity:1" transform="translate(309.87 278.039)" fill="none" stroke="#ff7a7c" stroke-width="15" stroke-linecap="butt" stroke-linejoin="miter" stroke-miterlimit="22.926" stroke-dasharray="none" stroke-opacity="" data-original="#000000" class="" opacity="1"></path><path d="M0 0v249.342M0-30v15m-441.343 264.342V-75H0v30" style="stroke-width:15;stroke-linecap:butt;stroke-linejoin:miter;stroke-miterlimit:22.926;stroke-dasharray:none;stroke-opacity:1" transform="translate(476.671 82.5)" fill="none" stroke="#ff7a7c" stroke-width="15" stroke-linecap="butt" stroke-linejoin="miter" stroke-miterlimit="22.926" stroke-dasharray="none" stroke-opacity="" data-original="#000000" class="" opacity="1"></path><path d="m0 0 176.47-91.066v33.759L2.052 32.7m-242.039-48.443-80.543-41.564v-33.759L-144.06 0m-2.052 32.7-80.543-41.564" style="stroke-width:15;stroke-linecap:butt;stroke-linejoin:miter;stroke-miterlimit:22.926;stroke-dasharray:none;stroke-opacity:1" transform="translate(328.03 408.547)" fill="none" stroke="#ff7a7c" stroke-width="15" stroke-linecap="butt" stroke-linejoin="miter" stroke-miterlimit="22.926" stroke-dasharray="none" stroke-opacity="" data-original="#000000" class="" opacity="1"></path><path d="M0 0v-70.022m-45 24.006V0" style="stroke-width:15;stroke-linecap:butt;stroke-linejoin:miter;stroke-miterlimit:22.926;stroke-dasharray:none;stroke-opacity:1" transform="translate(445.84 450.75)" fill="none" stroke="#ff7a7c" stroke-width="15" stroke-linecap="butt" stroke-linejoin="miter" stroke-miterlimit="22.926" stroke-dasharray="none" stroke-opacity="" data-original="#000000" class="" opacity="1"></path><path d="M0 0h45c8.25 0 15-6.75 15-15s-6.75-15-15-15H0c-8.25 0-15 6.75-15 15S-8.25 0 0 0z" style="stroke-width:15;stroke-linecap:butt;stroke-linejoin:miter;stroke-miterlimit:22.926;stroke-dasharray:none;stroke-opacity:1" transform="translate(400.84 480.75)" fill="none" stroke="#ff7a7c" stroke-width="15" stroke-linecap="butt" stroke-linejoin="miter" stroke-miterlimit="22.926" stroke-dasharray="none" stroke-opacity="" data-original="#000000" class="" opacity="1"></path><path d="m0 0 13.33-6.878m13.33-6.879 13.33-6.879" style="stroke-width:15;stroke-linecap:butt;stroke-linejoin:miter;stroke-miterlimit:2.613;stroke-dasharray:none;stroke-opacity:1" transform="translate(405.93 334.588)" fill="none" stroke="#ff7a7c" stroke-width="15" stroke-linecap="butt" stroke-linejoin="miter" stroke-miterlimit="2.613" stroke-dasharray="none" stroke-opacity="" data-original="#000000" class="" opacity="1"></path></g></g></svg>