<svg xmlns="http://www.w3.org/2000/svg" version="1.1" xmlns:xlink="http://www.w3.org/1999/xlink" width="512" height="512" x="0" y="0" viewBox="0 0 512 512" style="enable-background:new 0 0 512 512" xml:space="preserve" class=""><g><path d="m508.84 229.793-56.187-44.332h18.789c12.495 0 22.66-10.154 22.66-22.632V52.131c0-12.495-10.165-22.661-22.66-22.661h-158.31c-12.479 0-22.632 10.166-22.632 22.661v5.399l-30.188-23.788a6.988 6.988 0 0 0-8.654.002L3.16 229.793a6.988 6.988 0 0 0 4.328 12.474h84.869V427.48a6.988 6.988 0 0 0 13.976 0V238.666l149.654-118.085 34.512 27.219v15.029c0 12.479 10.154 22.632 22.632 22.632h25.101l67.434 53.206v188.814a6.988 6.988 0 0 0 13.976 0V242.267h84.869a6.988 6.988 0 0 0 4.329-12.474zM260.313 106.195a6.986 6.986 0 0 0-8.656.001L96.92 228.291H27.626L255.989 48.128l34.51 27.195v54.679zm44.162 56.634V52.131c0-4.789 3.883-8.685 8.656-8.685h158.31c4.788 0 8.684 3.896 8.684 8.685v110.697c0 4.774-3.896 8.657-8.684 8.657h-158.31c-4.773 0-8.656-3.883-8.656-8.656zm110.605 65.462-54.284-42.83h69.294l54.285 42.83zM87.916 75.244h4.441v57.993a6.988 6.988 0 0 0 13.976 0V75.244h50.61v14.795a6.988 6.988 0 0 0 13.976 0V75.244h4.441c9.188 0 16.663-7.475 16.663-16.663V29.838c0-9.188-7.475-16.663-16.663-16.663H87.916c-9.188 0-16.663 7.475-16.663 16.663v28.743c0 9.188 7.475 16.663 16.663 16.663zm-2.687-45.406c0-1.457 1.23-2.687 2.687-2.687h87.444c1.457 0 2.687 1.23 2.687 2.687v28.743c0 1.457-1.23 2.687-2.687 2.687H87.916c-1.457 0-2.687-1.23-2.687-2.687zm196.02 255.345c22.603 0 40.992-18.39 40.992-40.993 0-22.619-18.389-41.02-40.992-41.02-22.619 0-41.02 18.402-41.02 41.02-.001 22.603 18.401 40.993 41.02 40.993zm0-68.037c14.897 0 27.016 12.132 27.016 27.045 0 14.898-12.119 27.017-27.016 27.017-14.913 0-27.045-12.119-27.045-27.017 0-14.913 12.132-27.045 27.045-27.045zm61.898 232.545V359.67c0-19.811-16.118-35.929-35.929-35.929h-2.81c-3.125-9.815-12.324-16.946-23.16-16.946h-34.905l-9.782-49.689c-1.921-9.815-9.924-16.831-19.851-17.452a90.47 90.47 0 0 0-6.526-.217c-54.955 0-99.666 44.71-99.666 99.666 0 25.388 9.497 49.463 26.772 67.967l5.961 17.035-17.595 40.814c-5.282 12.274.411 26.592 12.709 31.924a24.128 24.128 0 0 0 9.561 1.982c3.047 0 6.101-.581 9.025-1.745 6.046-2.405 10.783-7.003 13.339-12.941l21.057-48.824c2.676-6.271 2.895-12.693.649-19.086-1.181-3.37-2.404-6.648-3.588-9.817-4.907-13.146-9.145-24.498-9.145-38.029 0-19.675 6.831-38.704 19.061-53.85l5.029 25.568c1.728 8.864 9.539 15.298 18.571 15.298h13.84c-.245.767-.492 1.532-.719 2.322l-38.249 131.632a6.988 6.988 0 0 0 13.42 3.9l24.282-83.566h94.671v40.002c-9.735 2.993-16.833 12.069-16.833 22.773 0 13.119 10.686 23.792 23.82 23.792 13.119 0 23.792-10.673 23.792-23.792.004-10.702-7.081-19.776-16.801-22.771zm-122.1-108.344c-1.996-.347-3.574-1.863-3.978-3.933l-.363-1.847-7.275-37.049c-.011-.056-.031-.109-.044-.165l-4.708-23.94c-.745-3.787-4.429-6.258-8.204-5.509a6.987 6.987 0 0 0-5.508 8.205l4.002 20.35c-18.906 18.663-29.679 44.282-29.679 70.922 0 16.055 4.871 29.103 10.028 42.917 1.159 3.104 2.358 6.315 3.494 9.556 1.082 3.082.981 5.933-.305 8.95l-21.049 48.804c-1.082 2.513-3.096 4.461-5.671 5.486-2.576 1.022-5.379.992-7.877-.082-5.23-2.268-7.659-8.355-5.416-13.568l18.672-43.312a6.984 6.984 0 0 0 .178-5.074l-7.355-21.019a6.977 6.977 0 0 0-1.561-2.538c-15.432-16.031-23.931-37.127-23.931-59.401 0-47.25 38.44-85.69 85.69-85.69 2.023 0 3.83.058 5.587.185 3.606.226 6.383 2.657 7.077 6.202l10.89 55.331a6.987 6.987 0 0 0 6.856 5.64h40.653c5.537 0 10.057 4.385 10.302 9.863 0 .032-.005.063-.005.095 0 .157.013.31.023.464-.052 5.649-4.659 10.23-10.32 10.23h-59.324a4.889 4.889 0 0 1-.879-.073zm17.514 54.363 9.911-34.109a65.152 65.152 0 0 1 2.123-6.202h30.653c11.104 0 20.486-7.49 23.377-17.681h2.592c12.106 0 21.953 9.847 21.953 21.953v36.04h-90.609zm97.598 86.567c-5.429 0-9.845-4.403-9.845-9.816 0-5.429 4.416-9.845 9.845-9.845 5.413 0 9.816 4.416 9.816 9.845.001 5.413-4.403 9.816-9.816 9.816zm99.354-395.831h-22.179V64.239a6.988 6.988 0 0 0-6.988-6.988h-28.12a6.988 6.988 0 0 0-6.988 6.988v22.208H349.06a6.988 6.988 0 0 0-6.988 6.988v28.091a6.988 6.988 0 0 0 6.988 6.988h22.178v22.179a6.988 6.988 0 0 0 6.988 6.988h28.12a6.988 6.988 0 0 0 6.988-6.988v-22.179h22.179a6.988 6.988 0 0 0 6.988-6.988V93.434a6.988 6.988 0 0 0-6.988-6.988zm-6.988 28.091h-22.179a6.988 6.988 0 0 0-6.988 6.988v22.179h-14.145v-22.179a6.988 6.988 0 0 0-6.988-6.988h-22.178v-14.115h22.178a6.988 6.988 0 0 0 6.988-6.988V71.227h14.145v22.208a6.988 6.988 0 0 0 6.988 6.988h22.179z" fill="#ff7a7c" opacity="1" data-original="#000000"></path></g></svg>