<svg xmlns="http://www.w3.org/2000/svg" version="1.1" xmlns:xlink="http://www.w3.org/1999/xlink" width="512" height="512" x="0" y="0" viewBox="0 0 64 64" style="enable-background:new 0 0 512 512" xml:space="preserve" class=""><g><path d="M51.717 11.09a13.334 13.334 0 0 0-8.959.357 12.61 12.61 0 0 0-7.736 8.453 13.437 13.437 0 0 0-.378 5.32 11.65 11.65 0 0 0 10.478 10.71 1.93 1.93 0 0 0 .55-3.822c-4.248-.612-6.669-3.09-7.195-7.36a9.698 9.698 0 0 1 .26-3.796 8.716 8.716 0 0 1 5.455-5.919 9.458 9.458 0 0 1 6.358-.263c5.744 1.823 5.594 8.565 5.583 8.92 0 11.238-10.557 26.644-10.664 26.799a1.93 1.93 0 1 0 3.175 2.196c.464-.67 11.35-16.546 11.349-28.918.138-3.433-1.416-10.502-8.276-12.678zM21.184 11.09a13.34 13.34 0 0 0-8.959.357A12.607 12.607 0 0 0 4.488 19.9a13.412 13.412 0 0 0-.378 5.32 11.649 11.649 0 0 0 10.478 10.71 1.93 1.93 0 0 0 .552-3.822c-4.25-.612-6.67-3.09-7.197-7.36a9.712 9.712 0 0 1 .26-3.796 8.714 8.714 0 0 1 5.456-5.919 9.46 9.46 0 0 1 6.357-.263c5.744 1.823 5.594 8.565 5.584 8.92 0 11.238-10.56 26.644-10.666 26.799a1.93 1.93 0 1 0 3.176 2.196c.463-.67 11.352-16.546 11.35-28.919.137-3.432-1.417-10.5-8.276-12.677z" fill="#ff7a7c" opacity="1" data-original="#000000" class=""></path></g></svg>