<svg xmlns="http://www.w3.org/2000/svg" version="1.1" xmlns:xlink="http://www.w3.org/1999/xlink" width="512" height="512" x="0" y="0" viewBox="0 0 682.667 682.667" style="enable-background:new 0 0 512 512" xml:space="preserve" class=""><g><defs><clipPath id="a" clipPathUnits="userSpaceOnUse"><path d="M0 512h512V0H0Z" fill="#ff7a7c" opacity="1" data-original="#000000"></path></clipPath></defs><g clip-path="url(#a)" transform="matrix(1.33333 0 0 -1.33333 0 682.667)"><path d="M0 0h-22.73v22.697a6.367 6.367 0 0 1-6.367 6.366h-14.215a6.366 6.366 0 0 1-6.366-6.366V0h-22.697a6.367 6.367 0 0 1-6.367-6.366v-14.216a6.366 6.366 0 0 1 6.367-6.366h22.697v-22.698a6.366 6.366 0 0 1 6.366-6.366h14.215a6.367 6.367 0 0 1 6.367 6.366v22.698H0a6.367 6.367 0 0 1 6.367 6.366v14.216A6.367 6.367 0 0 1 0 0Z" style="stroke-width:15;stroke-linecap:round;stroke-linejoin:round;stroke-miterlimit:10;stroke-dasharray:none;stroke-opacity:1" transform="translate(421.459 437.363)" fill="none" stroke="#ff7a7c" stroke-width="15" stroke-linecap="round" stroke-linejoin="round" stroke-miterlimit="10" stroke-dasharray="none" stroke-opacity="" data-original="#000000" opacity="1"></path><path d="m0 0-10.573-4.768L-21.146 0a13.746 13.746 0 0 1-16.319-21.198l19.802-24.379c3.655-4.5 10.525-4.5 14.18 0l19.802 24.379A13.746 13.746 0 0 1 0 0Z" style="stroke-width:15;stroke-linecap:round;stroke-linejoin:round;stroke-miterlimit:10;stroke-dasharray:none;stroke-opacity:1" transform="translate(345.202 251.71)" fill="none" stroke="#ff7a7c" stroke-width="15" stroke-linecap="round" stroke-linejoin="round" stroke-miterlimit="10" stroke-dasharray="none" stroke-opacity="" data-original="#000000" opacity="1"></path><path d="M0 0v-47.829h-369.213v263.428l184.607 94.645" style="stroke-width:15;stroke-linecap:round;stroke-linejoin:round;stroke-miterlimit:10;stroke-dasharray:none;stroke-opacity:1" transform="translate(440.606 93.092)" fill="none" stroke="#ff7a7c" stroke-width="15" stroke-linecap="round" stroke-linejoin="round" stroke-miterlimit="10" stroke-dasharray="none" stroke-opacity="" data-original="#000000" opacity="1"></path><path d="M0 0v-180.562" style="stroke-width:15;stroke-linecap:round;stroke-linejoin:round;stroke-miterlimit:10;stroke-dasharray:none;stroke-opacity:1" transform="translate(440.606 308.69)" fill="none" stroke="#ff7a7c" stroke-width="15" stroke-linecap="round" stroke-linejoin="round" stroke-miterlimit="10" stroke-dasharray="none" stroke-opacity="" data-original="#000000" opacity="1"></path><path d="m0 0-48.66 24.95-214.28-109.859c-5.03-2.58-11.01 1.069-11.01 6.72v24.809c0 2.83 1.59 5.431 4.11 6.721L-54.78 63.61c3.84 1.97 8.4 1.97 12.24 0l10.194-5.226M68.49-35.109l97.13-49.8c5.03-2.58 11.01 1.069 11.01 6.72v24.809c0 2.83-1.59 5.431-4.11 6.721l-23.31 11.96h-.01" style="stroke-width:15;stroke-linecap:round;stroke-linejoin:round;stroke-miterlimit:10;stroke-dasharray:none;stroke-opacity:1" transform="translate(304.66 378.39)" fill="none" stroke="#ff7a7c" stroke-width="15" stroke-linecap="round" stroke-linejoin="round" stroke-miterlimit="10" stroke-dasharray="none" stroke-opacity="" data-original="#000000" opacity="1"></path><path d="M0 0h-463.923c-5.777 0-10.461-4.684-10.461-10.461v-16.848c0-5.777 4.684-10.461 10.461-10.461H0c5.777 0 10.461 4.684 10.461 10.461v16.848C10.461-4.684 5.777 0 0 0Z" style="stroke-width:15;stroke-linecap:round;stroke-linejoin:round;stroke-miterlimit:10;stroke-dasharray:none;stroke-opacity:1" transform="translate(487.961 45.27)" fill="none" stroke="#ff7a7c" stroke-width="15" stroke-linecap="round" stroke-linejoin="round" stroke-miterlimit="10" stroke-dasharray="none" stroke-opacity="" data-original="#000000" opacity="1"></path><path d="M0 0h-130.174c-8.574 0-15.524 6.95-15.524 15.523v130.175c0 8.573 6.95 15.524 15.524 15.524H0c8.574 0 15.524-6.951 15.524-15.524V15.523C15.524 6.95 8.574 0 0 0Z" style="stroke-width:15;stroke-linecap:round;stroke-linejoin:round;stroke-miterlimit:10;stroke-dasharray:none;stroke-opacity:1" transform="translate(450.358 343.278)" fill="none" stroke="#ff7a7c" stroke-width="15" stroke-linecap="round" stroke-linejoin="round" stroke-miterlimit="10" stroke-dasharray="none" stroke-opacity="" data-original="#000000" opacity="1"></path><path d="M0 0v-37.77" style="stroke-width:15;stroke-linecap:round;stroke-linejoin:round;stroke-miterlimit:10;stroke-dasharray:none;stroke-opacity:1" transform="translate(133.888 45.27)" fill="none" stroke="#ff7a7c" stroke-width="15" stroke-linecap="round" stroke-linejoin="round" stroke-miterlimit="10" stroke-dasharray="none" stroke-opacity="" data-original="#000000" opacity="1"></path><path d="M0 0v-37.77" style="stroke-width:15;stroke-linecap:round;stroke-linejoin:round;stroke-miterlimit:10;stroke-dasharray:none;stroke-opacity:1" transform="translate(378.112 45.27)" fill="none" stroke="#ff7a7c" stroke-width="15" stroke-linecap="round" stroke-linejoin="round" stroke-miterlimit="10" stroke-dasharray="none" stroke-opacity="" data-original="#000000" opacity="1"></path><path d="M0 0v107.66c0 18.27-14.81 33.09-33.09 33.09h-39.54c-14.52 0-27.56-9.72-31.71-23.641l-39.3-131.929c-2.13-7.15 1.94-14.67 9.09-16.8 7.14-2.13 14.66 1.94 16.79 9.09l39.3 131.929a6.12 6.12 0 0 0 5.83 4.351h39.54c3.36 0 6.09-2.73 6.09-6.09V.01" style="stroke-width:15;stroke-linecap:round;stroke-linejoin:round;stroke-miterlimit:10;stroke-dasharray:none;stroke-opacity:1" transform="translate(262.517 109.91)" fill="none" stroke="#ff7a7c" stroke-width="15" stroke-linecap="round" stroke-linejoin="round" stroke-miterlimit="10" stroke-dasharray="none" stroke-opacity="" data-original="#000000" opacity="1"></path><path d="M0 0c0-12.292-9.964-22.256-22.255-22.256-12.291 0-22.256 9.964-22.256 22.256 0 12.291 9.965 22.255 22.256 22.255S0 12.291 0 0Z" style="stroke-width:15;stroke-linecap:round;stroke-linejoin:round;stroke-miterlimit:10;stroke-dasharray:none;stroke-opacity:1" transform="translate(271.271 92.226)" fill="none" stroke="#ff7a7c" stroke-width="15" stroke-linecap="round" stroke-linejoin="round" stroke-miterlimit="10" stroke-dasharray="none" stroke-opacity="" data-original="#000000" opacity="1"></path><path d="M0 0h67.879" style="stroke-width:15;stroke-linecap:round;stroke-linejoin:round;stroke-miterlimit:10;stroke-dasharray:none;stroke-opacity:1" transform="translate(167.637 164.192)" fill="none" stroke="#ff7a7c" stroke-width="15" stroke-linecap="round" stroke-linejoin="round" stroke-miterlimit="10" stroke-dasharray="none" stroke-opacity="" data-original="#000000" opacity="1"></path></g></g></svg>