<svg xmlns="http://www.w3.org/2000/svg" version="1.1" xmlns:xlink="http://www.w3.org/1999/xlink" width="512" height="512" x="0" y="0" viewBox="0 0 480.04 480.04" style="enable-background:new 0 0 512 512" xml:space="preserve" class=""><g><path d="M372.055 376.597a32 32 0 0 0-20.021-14.086h.016a31.773 31.773 0 0 0-24.24 4.264l-27.72 18.24a31.554 31.554 0 0 0-3.48-7.944c-9.461-14.922-29.227-19.352-44.152-9.896l-29.872 18.928-35.128-18.6a74.4 74.4 0 0 0-74.624 2.912L65.25 400.567a8.01 8.01 0 0 0 8.608 13.512l47.576-30.152a58.401 58.401 0 0 1 58.576-2.28l39.2 20.8a8 8 0 0 0 8-.312l33.792-21.416c7.465-4.732 17.352-2.517 22.084 4.948s2.517 17.352-4.948 22.084l-27.016 17.088a8.001 8.001 0 0 0 8.56 13.52l27.032-17.136a31.663 31.663 0 0 0 13.032-16.8l36.744-24.184c7.645-4.432 17.435-1.827 21.867 5.818 4.184 7.217 2.121 16.436-4.739 21.182l-56 35.472a137.168 137.168 0 0 1-129.144 9.504l-34.4-15.28a7.998 7.998 0 0 0-7.528.552l-27.032 17.128a8.001 8.001 0 0 0 8.56 13.52l23.384-14.832 30.496 13.552a153.256 153.256 0 0 0 144.216-10.616l56-35.48c14.925-9.465 19.35-29.237 9.885-44.162z" fill="#00adb8" opacity="1" data-original="#000000"></path><path d="M454.942 214.387c-.849-16.968-14.831-30.303-31.82-30.348h-77.056l-30.216-36.312a76.6 76.6 0 0 0-32.536-22.888 78.927 78.927 0 0 0 11.8-27.424c22.944-4.576 41.944-12.32 41.944-25.376 0-12.192-14.808-20.536-46.584-26.256a7.91 7.91 0 0 0-1.152 0C270.45 5.873 222.797-11.182 182.887 7.691a79.937 79.937 0 0 0-38.093 38.093 7.91 7.91 0 0 0-1.152 0c-31.776 5.72-46.584 14.064-46.584 26.256 0 13.056 19 20.8 41.944 25.36a78.92 78.92 0 0 0 10.856 26.08l-16.2 11.472A350.923 350.923 0 0 0 29.594 251.807a37.071 37.071 0 0 0-4.536 17.744v5.912c-.075 20.125 16.178 36.501 36.303 36.576H113.058v24a8 8 0 0 0 16 0v-24h32c17.673 0 32-14.327 32-32 0-17.673-14.327-32-32-32H77.25a8 8 0 0 0 0 16h83.808c8.837 0 16 7.163 16 16s-7.163 16-16 16H61.362a20.212 20.212 0 0 1-14.304-5.976 20.672 20.672 0 0 1-6-14.6v-5.912c0-3.512.883-6.967 2.568-10.048a334.907 334.907 0 0 1 99.28-111.464l17.176-12.168c.321.08.647.136.976.168h95.736a60.704 60.704 0 0 1 46.76 21.92l32.616 39.2a8 8 0 0 0 6.144 2.88h80.8c8.837 0 16 7.163 16 16s-7.163 16-16 16h-93.368l-50.888-53.512a8 8 0 0 0-13.8 5.512v152a8 8 0 0 0 16 0v-132l39.464 41.496a8.002 8.002 0 0 0 5.792 2.488h50.984a40.682 40.682 0 0 0-4.52 3.712 39.794 39.794 0 0 0-11.72 28.304v10.744a8 8 0 0 0 16 0v-10.744a23.873 23.873 0 0 1 7.032-16.976c9.5-9.056 24.436-9.056 33.936 0a23.906 23.906 0 0 1 7.032 16.976v88a8 8 0 0 0 16 0v-88a38.333 38.333 0 0 0-16.424-32.152c17.62-.881 31.189-15.88 30.308-33.5zM217.058 16.039a64.087 64.087 0 0 1 55.48 32.264 170.32 170.32 0 0 1-55.48 7.736 170.32 170.32 0 0 1-55.48-7.736 64.091 64.091 0 0 1 55.48-32.264zM113.786 72.087c2.808-2.304 11.76-6.792 32.688-10.552a8.05 8.05 0 0 0 2.976-1.192c13.576 7.208 39.432 11.696 67.608 11.696 28.176 0 54.032-4.488 67.608-11.696a8.05 8.05 0 0 0 2.976 1.192c20.928 3.76 29.88 8.248 32.688 10.552-7.08 6.224-44.232 15.952-103.272 15.952-59.04 0-96.192-9.728-103.272-15.952zm152.528 48.592a76.722 76.722 0 0 0-9.52-.64h-89.48a63.2 63.2 0 0 1-10.824-19.792 509.262 509.262 0 0 0 60.568 3.792 509.262 509.262 0 0 0 60.568-3.792 63.254 63.254 0 0 1-11.312 20.432z" fill="#00adb8" opacity="1" data-original="#000000"></path></g></svg>