<svg xmlns="http://www.w3.org/2000/svg" version="1.1" xmlns:xlink="http://www.w3.org/1999/xlink" width="512" height="512" x="0" y="0" viewBox="0 0 61.999 56" style="enable-background:new 0 0 512 512" xml:space="preserve" class=""><g><path d="m9.363 29.087 1.286-1.532 1.983 1.664-1.286 1.532zM4 19.324c0 3.014 1.168 5.848 3.29 7.981l1.418-1.41A9.257 9.257 0 0 1 6 19.324C6 14.183 10.183 10 15.324 10h.742V8h-.742C9.08 8 4 13.08 4 19.324zM28 35c1.654 0 3-1.346 3-3v-3h3c1.654 0 3-1.346 3-3v-2c0-1.654-1.346-3-3-3h-3v-3c0-1.654-1.346-3-3-3h-2c-1.654 0-3 1.346-3 3v3h-3c-1.654 0-3 1.346-3 3v2c0 1.654 1.346 3 3 3h3v3c0 1.654 1.346 3 3 3zm-3-3v-5h-5a1 1 0 0 1-1-1v-2a1 1 0 0 1 1-1h5v-5a1 1 0 0 1 1-1h2a1 1 0 0 1 1 1v5h5a1 1 0 0 1 1 1v2a1 1 0 0 1-1 1h-5v5a1 1 0 0 1-1 1h-2a1 1 0 0 1-1-1zM32 37h2v2h-2zM28 37h2v2h-2zM20 37h2v2h-2zM24 37h2v2h-2z" fill="#ff7a7c" opacity="1" data-original="#000000" class=""></path><path d="M61.999 30a8.995 8.995 0 0 0-4-7.478v-2.87C57.999 8.815 49.184 0 38.348 0a19.638 19.638 0 0 0-10.415 2.987l-2.753 1.72a2.495 2.495 0 0 0-1.109 1.566A15.382 15.382 0 0 0 16.066 4h-.742C6.874 4 0 10.874 0 19.324a15.29 15.29 0 0 0 5.468 11.734l18.076 15.183c-2.044.628-3.545 2.512-3.545 4.759 0 2.757 2.243 5 5 5h4.546a36.002 36.002 0 0 0 23.884-9.05c.314-.046.625-.124.912-.266a10.175 10.175 0 0 0 5.649-9.027A8.954 8.954 0 0 0 61.999 32zm-9 9h-3V23h3c1.544 0 2.969.509 4.128 1.359-1.928 1.462-3.128 3.917-3.128 6.641s1.199 5.179 3.127 6.641A6.953 6.953 0 0 1 52.999 39zm-27-32.16c0-.179.091-.343.242-.438l2.752-1.72A17.646 17.646 0 0 1 38.348 2c9.733 0 17.651 7.918 17.651 17.651v1.874a8.87 8.87 0 0 0-2-.466v-1.67C53.999 10.903 47.096 4 38.61 4c-3.226 0-6.318.991-8.944 2.866l-2.854 2.038c-.318.228-.813-.028-.813-.418zM2 19.324C2 11.978 7.978 6 15.324 6h.742c2.859 0 5.659.942 7.949 2.645A2.512 2.512 0 0 0 26.514 11c.527 0 1.032-.162 1.461-.469l2.854-2.038A13.318 13.318 0 0 1 38.61 6c7.383 0 13.389 6.006 13.389 13.389V21h-2.184a2.996 2.996 0 0 0-2.816-2c-1.654 0-3 1.346-3 3v10.254L28.121 45.591a1.74 1.74 0 0 1-1.122.408h-.002c-.408 0-.806-.145-1.118-.408L6.755 29.527A13.293 13.293 0 0 1 2 19.324zM47.999 22v18a1 1 0 0 1-2 0V22a1 1 0 0 1 2 0zm-16 31.912c-.813.059-1.633.088-2.454.088h-4.546c-1.654 0-3-1.346-3-3s1.346-3 3-3h4c1.654 0 3 1.346 3 3zm-1.543-7.67 13.543-11.376V40c0 1.654 1.346 3 3 3a2.996 2.996 0 0 0 2.816-2h2.365a4.187 4.187 0 0 1-.524.316 2.986 2.986 0 0 0-1.503 1.734 2.978 2.978 0 0 0 .163 2.292c.189.378.449.702.759.961-4.92 4.019-10.82 6.583-17.076 7.405V51c0-2.247-1.5-4.13-3.543-4.758zm22.993-1.348a1.02 1.02 0 0 1-1.345-.446.999.999 0 0 1 .447-1.342 6.144 6.144 0 0 0 2.521-2.356 8.957 8.957 0 0 0 2.642-1.098 8.173 8.173 0 0 1-4.265 5.242zM59.999 32a6.95 6.95 0 0 1-1.434 4.227c-1.558-1.052-2.566-3.056-2.566-5.227s1.008-4.176 2.566-5.227A6.95 6.95 0 0 1 59.999 30z" fill="#ff7a7c" opacity="1" data-original="#000000" class=""></path></g></svg>