<svg xmlns="http://www.w3.org/2000/svg" version="1.1" xmlns:xlink="http://www.w3.org/1999/xlink" width="512" height="512" x="0" y="0" viewBox="0 0 512 512" style="enable-background:new 0 0 512 512" xml:space="preserve" class=""><g><path d="M272.064 44.618H263.5v-8.564a7.5 7.5 0 0 0-15 0v8.564h-8.563a7.5 7.5 0 0 0 0 15h8.563v8.563a7.5 7.5 0 0 0 15 0v-8.563h8.563c4.143 0 7.5-3.358 7.5-7.5s-3.357-7.5-7.499-7.5zM209.469 217.624a7.5 7.5 0 0 0 7.5-7.5v-5.688a7.5 7.5 0 0 0-15 0v5.688a7.5 7.5 0 0 0 7.5 7.5zM302.532 217.624a7.5 7.5 0 0 0 7.5-7.5v-5.688c0-4.142-3.357-7.5-7.5-7.5s-7.5 3.358-7.5 7.5v5.688a7.5 7.5 0 0 0 7.5 7.5zM255.32 280.085c.225.004.449.007.674.007 9.401 0 18.416-4.004 25.449-11.321a7.5 7.5 0 0 0-10.814-10.394c-4.267 4.438-9.589 6.83-15.004 6.711-5.15-.104-9.976-2.409-13.589-6.487a7.5 7.5 0 0 0-11.228 9.946c6.422 7.249 15.127 11.347 24.512 11.538zM329.428 454.524c-4.143 0-7.5 3.358-7.5 7.5s3.357 7.5 7.5 7.5h62.48c4.143 0 7.5-3.358 7.5-7.5s-3.357-7.5-7.5-7.5z" fill="#ff7a7c" opacity="1" data-original="#000000"></path><path d="m466.264 492.682-7.889-40.302a7.5 7.5 0 1 0-14.721 2.881l7.885 40.283c.102.525.164.952.201 1.295-.649.085-1.621.159-3.04.159H285.617l31.827-128.67 5.985-24.225c45.179 11.845 104.504 30.589 113.565 77.027a7.502 7.502 0 0 0 8.797 5.925 7.5 7.5 0 0 0 5.925-8.798c-8.513-43.629-50.639-65.628-92.047-79.261 11.908-9.825 21.469-14.617 47.736-9.905 7.168 1.298 10-3.089 10.696-4.464.91-1.795 2.427-6.537-3.098-11.773-17.293-16.49-20.146-37.084-22.456-66.579v-39.98s-.008-10.094-.01-10.225c-.209-48.367-13.108-90.657-36.473-119.883l14.008-28.741c2.276-4.593 3.832-10.479-4.421-15.281C328.983 10.939 292.098.117 255.976 0c-36.073.117-72.958 10.939-109.644 32.173-8.237 4.793-6.682 10.68-4.427 15.228l14.028 28.778c-7.772 9.714-14.42 20.834-19.79 33.132a7.5 7.5 0 0 0 6.87 10.503 7.503 7.503 0 0 0 6.877-4.5c3.803-8.71 8.312-16.725 13.431-23.979l9.662 19.821c2.521 5.142 6.897 6.924 12.674 5.146 30.789-9.568 50.515-13.329 70.344-13.411 19.829.082 39.556 3.843 70.364 13.417 1.444.444 2.802.665 4.064.665 3.771 0 6.704-1.97 8.6-5.834l9.657-19.812c15.207 21.608 24.782 50.205 27.817 82.916a22.82 22.82 0 0 0-7.06-1.118h-7.374c-.129-6.641-5.562-12.005-12.233-12.005h-6.859c-17.43 0-29.165-10.597-35.978-19.58l-8.34-12.916a7.538 7.538 0 0 0-.946-1.184c-.902-.92-3.3-3.363-7.085-3.363-3.786 0-6.182 2.444-7.083 3.365-.354.36-.67.756-.944 1.18l-9.547 14.778c-12.81 19.832-53.096 18.826-85.467 18.021-6.189-.155-12.035-.3-17.502-.3h-7.917c-6.671 0-12.103 5.364-12.232 12.005h-7.374c-2.46 0-4.83.394-7.055 1.116.833-9.073 2.149-17.85 3.978-26.231a7.501 7.501 0 0 0-14.656-3.198c-3.464 15.876-5.255 32.991-5.355 50.882-.008.255-.019 10.598-.019 10.598v39.981c-2.31 29.495-5.164 50.089-22.469 66.591-5.501 5.27-3.975 9.997-3.064 11.785.698 1.368 3.529 5.733 10.662 4.443 26.276-4.713 35.839.077 47.748 9.902-41.408 13.632-83.533 35.631-92.047 79.258l-14.552 74.448c-.426 2.21-1.724 8.936 2.458 14.001 3.874 4.693 10.11 5.295 15.111 5.295h172.635l.023.002.032-.002h40.019l.032.002.023-.002h172.635c5 0 11.236-.602 15.11-5.295 4.182-5.065 2.884-11.791 2.453-14.02zM327.327 100.911c-30.398-9.266-50.618-12.937-71.298-13.019h-.058c-20.683.082-40.907 3.754-71.297 13.019l-27.972-57.387C190.128 24.699 223.525 15.105 255.976 15c32.502.105 65.906 9.702 99.323 28.524zm-23.678 260.715c-32.424 16.677-62.897 16.541-95.397-.428l-5.153-20.838.124-.032c10.417-2.643 11.973-10.166 11.973-14.415v-12.907c4.401 2.366 8.912 4.433 13.502 6.134 10.016 3.711 18.691 5.44 27.301 5.44s17.286-1.729 27.302-5.44c4.591-1.701 9.101-3.768 13.502-6.134v12.907c0 4.25 1.556 11.773 11.954 14.411l.145.037zm58.431-144.328v-29.172h7.362c4.349 0 8.024 3.739 8.099 8.196l.007 9.971c0 9.44-7.04 15.02-15.784 17.256.195-2.098.316-4.186.316-6.251zm-3.435 22.045c7.255-.801 13.665-2.986 18.904-6.283v13.507c0 .195.008.389.022.583 2.057 26.349 4.723 47.43 17.334 65.312-25.785-1.464-36.88 8.087-50.386 19.724l-1.867 1.605c-9.467-2.702-30.673-8.134-30.849-8.192v-22.147c22.168-16.434 39.732-40.322 46.842-64.109zm-193.724-63.222h5.162c5.28 0 11.035.144 17.128.295 36.119.899 81.067 2.021 98.441-24.877l4.975-7.7 3.919 6.069c.097.15.199.297.307.44 7.239 9.625 23.118 25.772 48.124 25.772h4.104v41.177c0 4.088-.495 8.297-1.424 12.559a7.467 7.467 0 0 0-.277 1.161c-7.074 29.962-35.483 62.268-67.29 74.056-8.295 3.074-15.313 4.506-22.089 4.506-6.775 0-13.794-1.432-22.088-4.506-31.809-11.789-60.219-44.097-67.291-74.06a7.389 7.389 0 0 0-.275-1.155c-.93-4.263-1.425-8.472-1.425-12.561v-41.176zm-30.456 20.088c.136-4.406 3.782-8.083 8.093-8.083h7.362v29.172c0 2.065.121 4.153.315 6.252-8.743-2.236-15.784-7.816-15.784-17.256.002 0 .013-9.733.014-10.085zm-17.369 116.257c12.609-17.875 15.277-38.961 17.333-65.316.015-.194.023-.389.023-.583V233.06c5.239 3.297 11.649 5.481 18.903 6.283 7.11 23.787 24.674 47.676 46.841 64.11V325.6c-.18.058-21.382 5.49-30.848 8.192-.629-.54-1.256-1.078-1.868-1.606-13.499-11.631-24.583-21.178-50.384-19.72zM63.3 496.998c-1.42 0-2.392-.073-3.041-.159.037-.34.099-.762.198-1.278l14.549-74.432c9.061-46.438 68.388-65.182 113.567-77.027l37.811 152.896zm206.866 0h-28.33l-28.944-117.042c14.532 6.079 28.723 9.086 43.029 9.149l.459.001c14.188 0 28.259-2.9 42.654-8.818z" fill="#ff7a7c" opacity="1" data-original="#000000"></path></g></svg>